<svg xmlns="http://www.w3.org/2000/svg" fill="#fff" width="106.688" height="24.468"><path data-name="}" d="M46.925 14.753a9.175 9.175 0 013.059 2.2 10.344 10.344 0 012.018 3.334 11.662 11.662 0 01.735 4.19h1.223a12.106 12.106 0 01.7-4.19 9.9 9.9 0 011.988-3.334 9.145 9.145 0 013.059-2.2 9.461 9.461 0 013.915-.795 36.817 36.817 0 016.913.642q3.363.643 6.668 1.438t6.7 1.438a37.619 37.619 0 007 .642 17.579 17.579 0 006.178-1.07 15.519 15.519 0 005.017-3 13.783 13.783 0 003.364-4.649 14.385 14.385 0 001.224-5.965V.008h-.489a.6.6 0 00-.612.734v2.692a13.321 13.321 0 01-1.04 5.261 12.428 12.428 0 01-2.967 4.252 13.736 13.736 0 01-4.619 2.814 17.152 17.152 0 01-6.056 1.009 36.97 36.97 0 01-6.883-.642q-3.394-.642-6.79-1.438t-6.791-1.437a36.544 36.544 0 00-6.821-.642 9.825 9.825 0 00-4.129.825 10.377 10.377 0 00-5.139 4.986 11.376 11.376 0 00-1.01 3.059 13.432 13.432 0 00-1.07-3.059 10.446 10.446 0 00-2.05-2.875 10.61 10.61 0 00-3.058-2.111 9.63 9.63 0 00-4.1-.825 36.537 36.537 0 00-6.821.642q-3.4.642-6.791 1.437t-6.791 1.438a36.951 36.951 0 01-6.882.642 17.152 17.152 0 01-6.056-1.009 13.736 13.736 0 01-4.619-2.814 12.428 12.428 0 01-2.967-4.252 13.321 13.321 0 01-1.04-5.261V.742A.6.6 0 00.483.008h-.489v3.426a14.4 14.4 0 001.223 5.965 13.8 13.8 0 003.377 4.651 15.524 15.524 0 005.016 3 17.589 17.589 0 006.179 1.07 37.635 37.635 0 007-.642q3.394-.642 6.7-1.438t6.637-1.438a36.657 36.657 0 016.944-.642 9.322 9.322 0 013.855.793z"/></svg>
