<svg xmlns="http://www.w3.org/2000/svg" viewBox="0 0 124.24 20"><defs><style>.prefix__a{fill:#fff}.prefix__b{fill:#cfc91d}</style></defs><path class="prefix__a" d="M8.46 19.73l-4-14h-.09c.19 2.39.25 4.27.25 5.57v8.43H0V.31h7l4.04 13.79h.11L15.12.31h7v19.42H17.3v-8.51-1.48c0-.54.07-1.86.18-4h-.12l-3.92 14zM33.25 7.51l3.37-7.2h5.69l-6.4 11.84v7.58h-5.29v-7.42l-6.41-12h5.72z"/><path class="prefix__b" d="M49.55 19.73h-5.16V.31h11.48v4.21h-6.32v3.71h5.83v4.21h-5.83zM77.24 10c0 3.27-.81 5.76-2.41 7.46S70.88 20 67.79 20s-5.39-.85-7-2.56-2.44-4.2-2.44-7.47.81-5.71 2.42-7.41 4-2.56 7-2.56 5.44.85 7 2.54 2.47 4.18 2.47 7.46zm-13.37 0c0 3.76 1.3 5.64 3.92 5.64a3.39 3.39 0 003-1.37 7.51 7.51 0 001-4.27 7.57 7.57 0 00-1-4.3 3.34 3.34 0 00-2.92-1.38q-4-.01-4 5.68zM80.75 19.73V.31h5.24V15.5h7.49v4.23zM96.62 19.73V.31h5.27v19.42zM124.24 10q0 4.9-2.4 7.46c-1.61 1.7-4 2.55-7 2.55s-5.38-.85-7-2.56-2.44-4.2-2.44-7.47.81-5.71 2.43-7.41 4-2.56 7-2.56 5.44.85 7 2.54 2.41 4.17 2.41 7.45zm-13.37 0q0 5.64 3.92 5.64a3.38 3.38 0 003-1.37 7.51 7.51 0 001-4.27 7.58 7.58 0 00-1-4.3 3.35 3.35 0 00-2.92-1.38q-3.99-.01-4 5.68z"/></svg>
