<svg xmlns="http://www.w3.org/2000/svg" viewBox="0 0 31.75 32"><title>clock</title><path d="M31.16,11a5.88,5.88,0,1,0-8.31-8.32.55.55,0,0,0-.08.63,14.7,14.7,0,0,0-11.54,0,.54.54,0,0,0-.08-.62A5.88,5.88,0,0,0,2.84,11a.58.58,0,0,0,.41.17c.07,0,.14-.06.21-.09A14.66,14.66,0,0,0,8.12,28.58a2.19,2.19,0,0,0-1.1.91,2.33,2.33,0,0,0-.24,1.77,2.37,2.37,0,0,0,1.09,1.43A2.41,2.41,0,0,0,9,33a2.35,2.35,0,0,0,2-1.17,2.32,2.32,0,0,0,.26-1.38A14.46,14.46,0,0,0,17,31.59a14.67,14.67,0,0,0,5.67-1.13,2.3,2.3,0,0,0,.26,1.37A2.35,2.35,0,0,0,25,33a2.38,2.38,0,0,0,1.17-.31,2.35,2.35,0,0,0,1.09-1.42,2.2,2.2,0,0,0-1.33-2.69,14.68,14.68,0,0,0,5.84-11.71,14.84,14.84,0,0,0-1.18-5.77c.07,0,.13.09.21.09A.59.59,0,0,0,31.16,11ZM3.65,3.53a4.76,4.76,0,0,1,6.7,0,.6.6,0,0,0,.26.11,14.77,14.77,0,0,0-6.85,6.85.46.46,0,0,0-.11-.27A4.74,4.74,0,0,1,3.65,3.53Zm6.43,27.73A1.19,1.19,0,0,1,7.89,31,1.16,1.16,0,0,1,8,30.06a1.19,1.19,0,0,1,1-.6,1.16,1.16,0,0,1,.6.17A1.19,1.19,0,0,1,10.08,31.26ZM26,30.06a1.16,1.16,0,0,1,.12.91,1.2,1.2,0,0,1-.56.73,1.22,1.22,0,0,1-1.63-.44A1.2,1.2,0,1,1,26,30.06Zm4.58-13.19A13.57,13.57,0,1,1,17,3.3,13.59,13.59,0,0,1,30.57,16.87Zm-.22-6.65a.44.44,0,0,0-.11.27,14.77,14.77,0,0,0-6.85-6.85.52.52,0,0,0,.26-.12,4.74,4.74,0,0,1,6.7,6.7Z" transform="translate(-1.13 -1)"/><path d="M17,5.89A11.08,11.08,0,1,0,28.08,17,11.09,11.09,0,0,0,17,5.89Zm0,21A9.94,9.94,0,1,1,26.94,17,10,10,0,0,1,17,26.91Z" transform="translate(-1.13 -1)"/><path d="M17.57,16.78V10A.57.57,0,0,0,17,9.42a.58.58,0,0,0-.57.57v7a.54.54,0,0,0,.17.4l3.31,3.31a.57.57,0,0,0,.8-.81Z" transform="translate(-1.13 -1)"/></svg>