<svg xmlns="http://www.w3.org/2000/svg" viewBox="0 0 32 22.35"><title>comp</title><path d="M32.43,25.1H31.07V6.4a.58.58,0,0,0-.57-.58H3.5a.58.58,0,0,0-.57.58V25.1H1.57a.58.58,0,0,0-.57.57,2.51,2.51,0,0,0,2.5,2.51h27A2.52,2.52,0,0,0,33,25.67.58.58,0,0,0,32.43,25.1ZM4.08,7H29.92V25.1H4.08ZM17,27a1.35,1.35,0,0,1-1.21-.78h2.43A1.35,1.35,0,0,1,17,27ZM2.28,26.25H14.62A2.18,2.18,0,0,0,15,27H3.5A1.35,1.35,0,0,1,2.28,26.25ZM30.5,27v0H19.05a2.37,2.37,0,0,0,.34-.78H31.72A1.34,1.34,0,0,1,30.5,27Z" transform="translate(-1 -5.82)"/><path d="M29.15,23.75V8.32a.58.58,0,0,0-.58-.57H5.43a.58.58,0,0,0-.57.57V23.75a.58.58,0,0,0,.57.57H28.57A.58.58,0,0,0,29.15,23.75ZM28,23.18H6V8.9H28Z" transform="translate(-1 -5.82)"/></svg>