<svg xmlns="http://www.w3.org/2000/svg" viewBox="0 0 32 32"><title>gear</title><path d="M17,10.64A6.36,6.36,0,1,0,23.36,17,6.36,6.36,0,0,0,17,10.64ZM17,22.2A5.2,5.2,0,1,1,22.2,17,5.2,5.2,0,0,1,17,22.2Z" transform="translate(-1 -1)"/><path d="M32.49,12.57l-3.68-.46,2.28-2.93A.59.59,0,0,0,31,8.41L25.59,3a.59.59,0,0,0-.77,0L21.89,5.19l-.46-3.68A.58.58,0,0,0,20.85,1h-7.7a.58.58,0,0,0-.58.51l-.46,3.68L9.18,2.92a.58.58,0,0,0-.76,0L3,8.41a.58.58,0,0,0,0,.77l2.27,2.93-3.68.46a.58.58,0,0,0-.51.58v7.71a.58.58,0,0,0,.51.57l3.68.46L2.92,24.82a.58.58,0,0,0,0,.77L8.42,31a.56.56,0,0,0,.76,0l2.93-2.27.46,3.68a.58.58,0,0,0,.58.51h7.7a.58.58,0,0,0,.58-.51l.46-3.68,2.93,2.27a.57.57,0,0,0,.77,0L31,25.58a.58.58,0,0,0,.05-.77l-2.28-2.92,3.68-.46a.58.58,0,0,0,.51-.58V13.14A.58.58,0,0,0,32.49,12.57Zm-.65,7.77-4.19.52a.57.57,0,0,0-.46.36.58.58,0,0,0,.08.58l2.58,3.33-4.72,4.72L21.8,27.26a.6.6,0,0,0-.58-.07.56.56,0,0,0-.35.46l-.53,4.19H13.66l-.52-4.19a.59.59,0,0,0-.36-.46.58.58,0,0,0-.58.07L8.87,29.85,4.15,25.13,6.74,21.8a.59.59,0,0,0-.39-.94l-4.18-.52V13.66l4.18-.53a.58.58,0,0,0,.47-.35.58.58,0,0,0-.08-.58L4.15,8.87,8.87,4.15,12.2,6.74a.58.58,0,0,0,.58.07.56.56,0,0,0,.35-.46l.53-4.19h6.68l.53,4.19a.56.56,0,0,0,.35.46.6.6,0,0,0,.58-.07l3.33-2.6,4.72,4.73L27.26,12.2a.57.57,0,0,0-.07.58.56.56,0,0,0,.46.35l4.19.53v6.68Z" transform="translate(-1 -1)"/></svg>