<svg xmlns="http://www.w3.org/2000/svg" viewBox="0 0 27.44 32"><title>globus</title><path d="M29.74,20.85,27.61,23l-1.76-1.76A10.89,10.89,0,0,0,28,10.33h0a11,11,0,0,0-2.54-4.1A10.87,10.87,0,0,0,17.76,3c-.21,0-.4.05-.61.06-.06,0-.12,0-.18,0a10.77,10.77,0,0,0-6.48,2.75L8.73,4.11,10.86,2a.56.56,0,0,0,0-.81.56.56,0,0,0-.81,0L7.52,3.7a14.48,14.48,0,0,0,9.81,24.72c-.21,1.09-1,3.44-3.47,3.44h-.71a.57.57,0,0,0-.58.57.58.58,0,0,0,.58.57h9.23a.58.58,0,0,0,.58-.57.57.57,0,0,0-.58-.57H16.82a6.22,6.22,0,0,0,1.67-3.45A14.41,14.41,0,0,0,28,24.21l2.54-2.54a.57.57,0,0,0,0-.82A.58.58,0,0,0,29.74,20.85Zm-5.07,0a9.78,9.78,0,0,1-13.82,0,9.82,9.82,0,0,1-2.37-4l1-.31,1.33,1a.6.6,0,0,0,.34.11.58.58,0,0,0,.43-.21l2-2.32a.57.57,0,0,0-.43-.95H11.74L11,13.64l0-1,.93-.65a.57.57,0,0,0,.25-.47V8.17a.58.58,0,0,0-.57-.57H10.4c.16-.18.28-.38.45-.56a9.69,9.69,0,0,1,5.39-2.71l-.65,1.42a.56.56,0,0,0,.11.64l1.08,1.13a.52.52,0,0,0,.17.13l2.23,1a.57.57,0,0,0,.51,0s.54-.29.89-.5a13.83,13.83,0,0,1,2.34.5l1.73,2a.57.57,0,0,0,.43.2H27A9.74,9.74,0,0,1,24.67,20.87ZM9.51,8.75H11v2.52l-1,.66a.57.57,0,0,0-.24.5L9.87,14a.59.59,0,0,0,.25.45l1.12.77a.61.61,0,0,0,.33.1h.31l-.81,1-1.14-.81a.56.56,0,0,0-.5-.09l-1.26.39A9.81,9.81,0,0,1,9.51,8.75ZM24.67,7a9.75,9.75,0,0,1,1.88,2.72h-1.2l-1.67-2a.54.54,0,0,0-.27-.18C20.56,6.81,20.22,7,20,7.17s-.43.26-.62.36l-1.87-.88-.74-.77.77-1.68.19,0A9.72,9.72,0,0,1,24.67,7ZM8,5,9.68,6.68a11.33,11.33,0,0,0-.89,1.08l0,0a10.91,10.91,0,0,0,9,17.08A10.75,10.75,0,0,0,25,22l1.71,1.72A13.3,13.3,0,0,1,8,5Z" transform="translate(-3.28 -1)"/><path d="M20.34,15.36a.62.62,0,0,0-.57-.22.58.58,0,0,0-.44.43c-.1.37-.21.8-.31,1.13-.36-.27-.9-.65-1.73-1.17l-2.12-1.3a.61.61,0,0,0-.51,0,.58.58,0,0,0-.34.38l-.49,1.7-1.58,2a.55.55,0,0,0-.12.35v2a.58.58,0,0,0,.43.56l2.93.72h4.39a.58.58,0,0,0,.32-.1L22,20.57a.59.59,0,0,0,.26-.48v-2a.61.61,0,0,0-.11-.35Zm.78,4.41-1.41.93-4.08,0-2.36-.6V18.81L14.8,16.9a.7.7,0,0,0,.11-.21l.31-1.08,1.47.9c.86.54,1.87,1.25,2,1.34a.63.63,0,0,0,.57.43c.38,0,.57-.14.9-1.29l1,1.29Z" transform="translate(-3.28 -1)"/><path d="M25.89,11.2H23.76a.58.58,0,0,0-.57.58V14a.58.58,0,0,0,.23.46.54.54,0,0,0,.34.12l.17,0,2.12-.62a.58.58,0,0,0,.41-.56V11.78A.57.57,0,0,0,25.89,11.2Zm-.58,1.7-1,.29v-.84h1Z" transform="translate(-3.28 -1)"/></svg>