<svg xmlns="http://www.w3.org/2000/svg" viewBox="0 0 30.56 32"><title>lamp</title><path d="M16.81,7.92a8.72,8.72,0,0,0-5.39,15.6.54.54,0,0,0,.15.15,2.77,2.77,0,0,1,1.15,2.23s0,0,0,.06,0,0,0,.06l1.44,6.55a.54.54,0,0,0,.53.43h4.22a.55.55,0,0,0,.53-.43L20.89,26s0,0,0-.06,0,0,0-.06A2.81,2.81,0,0,1,22,23.67a.53.53,0,0,0,.13-.13A8.72,8.72,0,0,0,16.81,7.92Zm1.67,24H15.15L15,31.37h3.56Zm.35-1.63h-4l-.12-.55H19Zm.36-1.64H14.42L14,26.44h5.72Zm2.21-5.88a.46.46,0,0,0-.12.12,3.94,3.94,0,0,0-1.43,2.48H17.36V17.7a1.09,1.09,0,0,1,1.09-1.09.55.55,0,1,0,0-1.1,2.18,2.18,0,0,0-1.64.78s0-.1-.1-.14a2.17,2.17,0,0,0-1.53-.64h0a.55.55,0,0,0-.55.55.55.55,0,0,0,.55.55h0a1.07,1.07,0,0,1,.76.32,1.06,1.06,0,0,1,.32.77v7.65H13.78a4,4,0,0,0-1.43-2.48l-.12-.12a7.65,7.65,0,1,1,9.17,0Z" transform="translate(-1.72 -1)"/><path d="M17,5.78a.55.55,0,0,0,.55-.55V1.55A.55.55,0,0,0,17,1a.55.55,0,0,0-.54.55V5.23A.54.54,0,0,0,17,5.78Z" transform="translate(-1.72 -1)"/><path d="M8.8,8.86a.56.56,0,0,0,.78,0,.56.56,0,0,0,0-.78L7,5.48a.53.53,0,0,0-.77,0,.55.55,0,0,0,0,.77Z" transform="translate(-1.72 -1)"/><path d="M6.5,16.28A.55.55,0,0,0,6,15.73H2.27a.55.55,0,1,0,0,1.1H6A.55.55,0,0,0,6.5,16.28Z" transform="translate(-1.72 -1)"/><path d="M8.81,23.7,6.2,26.31a.55.55,0,0,0,0,.77.56.56,0,0,0,.39.17A.53.53,0,0,0,7,27.08l2.61-2.6a.54.54,0,0,0,0-.78A.55.55,0,0,0,8.81,23.7Z" transform="translate(-1.72 -1)"/><path d="M25.2,24.17a.55.55,0,0,0-.78.78L27,27.56a.51.51,0,0,0,.39.16.51.51,0,0,0,.38-.16.53.53,0,0,0,0-.77Z" transform="translate(-1.72 -1)"/><path d="M31.73,15.73H28.05a.55.55,0,0,0-.55.55.54.54,0,0,0,.55.54h3.68a.54.54,0,0,0,.55-.55A.55.55,0,0,0,31.73,15.73Z" transform="translate(-1.72 -1)"/><path d="M24.81,9a.56.56,0,0,0,.39-.17l2.61-2.6a.55.55,0,0,0,0-.77.54.54,0,0,0-.78,0l-2.61,2.6a.55.55,0,0,0,0,.77A.56.56,0,0,0,24.81,9Z" transform="translate(-1.72 -1)"/></svg>