<?xml version="1.0" encoding="utf-8"?><svg viewBox="0 0 32 32" xmlns="http://www.w3.org/2000/svg" xmlns:xlink="http://www.w3.org/1999/xlink"><style>:root>svg{display:none}:root>svg:target{display:block}</style><svg viewBox="0 0 31.75 32" id="clock" xmlns="http://www.w3.org/2000/svg"><path d="M30.03 10a5.88 5.88 0 10-8.31-8.32.55.55 0 00-.08.63 14.7 14.7 0 00-11.54 0 .54.54 0 00-.08-.62A5.88 5.88 0 001.71 10a.58.58 0 00.41.17c.07 0 .14-.06.21-.09a14.66 14.66 0 004.66 17.5 2.19 2.19 0 00-1.1.91 2.33 2.33 0 00-.24 1.77 2.37 2.37 0 001.09 1.43 2.41 2.41 0 001.13.31 2.35 2.35 0 002-1.17 2.32 2.32 0 00.26-1.38 14.46 14.46 0 005.74 1.14 14.67 14.67 0 005.67-1.13 2.3 2.3 0 00.26 1.37A2.35 2.35 0 0023.87 32a2.38 2.38 0 001.17-.31 2.35 2.35 0 001.09-1.42 2.2 2.2 0 00-1.33-2.69 14.68 14.68 0 005.84-11.71 14.84 14.84 0 00-1.18-5.77c.07 0 .13.09.21.09a.59.59 0 00.36-.19zM2.52 2.53a4.76 4.76 0 016.7 0 .6.6 0 00.26.11 14.77 14.77 0 00-6.85 6.85.46.46 0 00-.11-.27 4.74 4.74 0 010-6.69zm6.43 27.73A1.19 1.19 0 016.76 30a1.16 1.16 0 01.11-.94 1.19 1.19 0 011-.6 1.16 1.16 0 01.6.17 1.19 1.19 0 01.48 1.63zm15.92-1.2a1.16 1.16 0 01.12.91 1.2 1.2 0 01-.56.73 1.22 1.22 0 01-1.63-.44 1.2 1.2 0 112.07-1.2zm4.58-13.19A13.57 13.57 0 1115.87 2.3a13.59 13.59 0 0113.57 13.57zm-.22-6.65a.44.44 0 00-.11.27 14.77 14.77 0 00-6.85-6.85.52.52 0 00.26-.12 4.74 4.74 0 016.7 6.7z"/><path d="M15.87 4.89A11.08 11.08 0 1026.95 16 11.09 11.09 0 0015.87 4.89zm0 21A9.94 9.94 0 1125.81 16a10 10 0 01-9.94 9.91z"/><path d="M16.44 15.78V9a.57.57 0 00-.57-.58.58.58 0 00-.57.57v7a.54.54 0 00.17.4l3.31 3.31a.57.57 0 00.8-.81z"/></svg><svg viewBox="0 0 32 22.35" id="comp" xmlns="http://www.w3.org/2000/svg"><path d="M31.43 19.28h-1.36V.58A.58.58 0 0029.5 0h-27a.58.58 0 00-.57.58v18.7H.57a.58.58 0 00-.57.57 2.51 2.51 0 002.5 2.51h27a2.52 2.52 0 002.5-2.51.58.58 0 00-.57-.57zM3.08 1.18h25.84v18.1H3.08zm12.92 20a1.35 1.35 0 01-1.21-.78h2.43a1.35 1.35 0 01-1.22.78zm-14.72-.75h12.34a2.18 2.18 0 00.38.75H2.5a1.35 1.35 0 01-1.22-.75zm28.22.75H18.05a2.37 2.37 0 00.34-.78h12.33a1.34 1.34 0 01-1.22.78z"/><path d="M28.15 17.93V2.5a.58.58 0 00-.58-.57H4.43a.58.58 0 00-.57.57v15.43a.58.58 0 00.57.57h23.14a.58.58 0 00.58-.57zM27 17.36H5V3.08h22z"/></svg><svg viewBox="0 0 32 32" id="gear" xmlns="http://www.w3.org/2000/svg"><path d="M16 9.64A6.36 6.36 0 1022.36 16 6.36 6.36 0 0016 9.64zm0 11.56a5.2 5.2 0 115.2-5.2 5.2 5.2 0 01-5.2 5.2z"/><path d="M31.49 11.57l-3.68-.46 2.28-2.93a.59.59 0 00-.09-.77L24.59 2a.59.59 0 00-.77 0l-2.93 2.19-.46-3.68a.58.58 0 00-.58-.51h-7.7a.58.58 0 00-.58.51l-.46 3.68-2.93-2.27a.58.58 0 00-.76 0L2 7.41a.58.58 0 000 .77l2.27 2.93-3.68.46a.58.58 0 00-.51.58v7.71a.58.58 0 00.51.57l3.68.46-2.35 2.93a.58.58 0 000 .77L7.42 30a.56.56 0 00.76 0l2.93-2.27.46 3.68a.58.58 0 00.58.51h7.7a.58.58 0 00.58-.51l.46-3.68L23.82 30a.57.57 0 00.77 0L30 24.58a.58.58 0 00.05-.77l-2.28-2.92 3.68-.46a.58.58 0 00.51-.58v-7.71a.58.58 0 00-.47-.57zm-.65 7.77l-4.19.52a.57.57 0 00-.46.36.58.58 0 00.08.58l2.58 3.33-4.72 4.72-3.33-2.59a.6.6 0 00-.58-.07.56.56 0 00-.35.46l-.53 4.19h-6.68l-.52-4.19a.59.59 0 00-.36-.46.58.58 0 00-.58.07l-3.33 2.59-4.72-4.72 2.59-3.33a.59.59 0 00-.39-.94l-4.18-.52v-6.68l4.18-.53a.58.58 0 00.47-.35.58.58 0 00-.08-.58L3.15 7.87l4.72-4.72 3.33 2.59a.58.58 0 00.58.07.56.56 0 00.35-.46l.53-4.19h6.68l.53 4.19a.56.56 0 00.35.46.6.6 0 00.58-.07l3.33-2.6 4.72 4.73-2.59 3.33a.57.57 0 00-.07.58.56.56 0 00.46.35l4.19.53v6.68z"/></svg><svg viewBox="0 0 27.44 32" id="globus" xmlns="http://www.w3.org/2000/svg"><path d="M26.46 19.85L24.33 22l-1.76-1.76a10.89 10.89 0 002.15-10.91 11 11 0 00-2.54-4.1A10.87 10.87 0 0014.48 2c-.21 0-.4.05-.61.06h-.18a10.77 10.77 0 00-6.48 2.75l-1.76-1.7L7.58 1a.56.56 0 000-.81.56.56 0 00-.81 0L4.24 2.7a14.48 14.48 0 009.81 24.72c-.21 1.09-1 3.44-3.47 3.44h-.71a.57.57 0 00-.58.57.58.58 0 00.58.57h9.23a.58.58 0 00.58-.57.57.57 0 00-.58-.57h-5.56a6.22 6.22 0 001.67-3.45 14.41 14.41 0 009.51-4.2l2.54-2.54a.57.57 0 000-.82.58.58 0 00-.8 0zm-5.07 0a9.78 9.78 0 01-13.82 0 9.82 9.82 0 01-2.37-4l1-.31 1.33 1a.6.6 0 00.34.11.58.58 0 00.43-.21l2-2.32a.57.57 0 00-.43-.95H8.46l-.74-.53v-1l.93-.65a.57.57 0 00.25-.47V7.17a.58.58 0 00-.57-.57H7.12c.16-.18.28-.38.45-.56a9.69 9.69 0 015.39-2.71l-.65 1.42a.56.56 0 00.11.64l1.08 1.13a.52.52 0 00.17.13l2.23 1a.57.57 0 00.51 0s.54-.29.89-.5a13.83 13.83 0 012.34.5l1.73 2a.57.57 0 00.43.2h1.92a9.74 9.74 0 01-2.33 10.02zM6.23 7.75h1.49v2.52l-1 .66a.57.57 0 00-.24.5L6.59 13a.59.59 0 00.25.45l1.12.77a.61.61 0 00.33.1h.31l-.81 1-1.14-.81a.56.56 0 00-.5-.09l-1.26.39a9.81 9.81 0 011.34-7.06zM21.39 6a9.75 9.75 0 011.88 2.72h-1.2l-1.67-2a.54.54 0 00-.27-.18c-2.85-.73-3.19-.54-3.41-.37s-.43.26-.62.36l-1.87-.88-.74-.77.77-1.68h.19A9.72 9.72 0 0121.39 6zM4.72 4L6.4 5.68a11.33 11.33 0 00-.89 1.08 10.91 10.91 0 009 17.08A10.75 10.75 0 0021.72 21l1.71 1.72A13.3 13.3 0 014.72 4z"/><path d="M17.06 14.36a.62.62 0 00-.57-.22.58.58 0 00-.44.43c-.1.37-.21.8-.31 1.13-.36-.27-.9-.65-1.73-1.17l-2.12-1.3a.61.61 0 00-.51 0 .58.58 0 00-.34.38l-.49 1.7-1.58 2a.55.55 0 00-.12.35v2a.58.58 0 00.43.56l2.93.72h4.39a.58.58 0 00.32-.1l1.8-1.27a.59.59 0 00.26-.48v-2a.61.61 0 00-.11-.35zm.78 4.41l-1.41.93h-4.08l-2.36-.6v-1.29l1.53-1.91a.7.7 0 00.11-.21l.31-1.08 1.47.9c.86.54 1.87 1.25 2 1.34a.63.63 0 00.57.43c.38 0 .57-.14.9-1.29l1 1.29zM22.61 10.2h-2.13a.58.58 0 00-.57.58V13a.58.58 0 00.23.46.54.54 0 00.34.12h.17l2.12-.62a.58.58 0 00.41-.56v-1.62a.57.57 0 00-.57-.58zm-.58 1.7l-1 .29v-.84h1z"/></svg><svg viewBox="0 0 32 32" id="graph" xmlns="http://www.w3.org/2000/svg"><path d="M31.42 30.84H.58a.58.58 0 000 1.16h30.84a.58.58 0 100-1.16zM4.27 28.15h23.3a.58.58 0 00.57-.58V8.29a.58.58 0 00-.57-.58h-7.14V.58a.58.58 0 00-.58-.58h-7.71a.59.59 0 00-.58.58v14.84H4.27a.58.58 0 00-.58.58v11.57a.58.58 0 00.58.58zM20.43 8.87H27V27h-6.57zM12.72 16V1.16h6.56V27h-6.56zm-7.87.57h6.71V27H4.85z"/></svg><svg viewBox="0 0 30.56 32" id="lamp" xmlns="http://www.w3.org/2000/svg"><path d="M15.09 6.92a8.72 8.72 0 00-5.39 15.6.54.54 0 00.15.15A2.77 2.77 0 0111 24.9v.12l1.44 6.55a.54.54 0 00.53.43h4.22a.55.55 0 00.53-.43L19.17 25v-.06-.06a2.81 2.81 0 011.11-2.21.53.53 0 00.13-.13 8.72 8.72 0 00-5.32-15.62zm1.67 24h-3.33l-.15-.55h3.56zm.35-1.63h-4l-.12-.55h4.29zm.36-1.64H12.7l-.42-2.21H18zm2.21-5.88a.46.46 0 00-.12.12 3.94 3.94 0 00-1.43 2.48h-2.49V16.7a1.09 1.09 0 011.09-1.09.55.55 0 100-1.1 2.18 2.18 0 00-1.64.78s0-.1-.1-.14a2.17 2.17 0 00-1.53-.64.55.55 0 00-.55.55.55.55 0 00.55.55 1.07 1.07 0 01.76.32 1.06 1.06 0 01.32.77v7.65h-2.48a4 4 0 00-1.43-2.48l-.12-.12a7.65 7.65 0 119.17 0zM15.28 4.78a.55.55 0 00.55-.55V.55a.55.55 0 00-.55-.55.55.55 0 00-.54.55v3.68a.54.54 0 00.54.55zM7.08 7.86a.56.56 0 00.78 0 .56.56 0 000-.78l-2.58-2.6a.53.53 0 00-.77 0 .55.55 0 000 .77zM4.78 15.28a.55.55 0 00-.5-.55H.55a.55.55 0 100 1.1h3.73a.55.55 0 00.5-.55zM7.09 22.7l-2.61 2.61a.55.55 0 000 .77.56.56 0 00.39.17.53.53 0 00.41-.17l2.61-2.6a.54.54 0 000-.78.55.55 0 00-.8 0zM23.48 23.17a.552.552 0 00-.78.78l2.58 2.61a.51.51 0 00.39.16.51.51 0 00.38-.16.53.53 0 000-.77zM30.01 14.73h-3.68a.55.55 0 00-.55.55.54.54 0 00.55.54h3.68a.54.54 0 00.55-.55.55.55 0 00-.55-.54zM23.09 8a.56.56 0 00.39-.17l2.61-2.6a.55.55 0 000-.77.54.54 0 00-.78 0l-2.61 2.6a.55.55 0 000 .77.56.56 0 00.39.17z"/></svg><svg viewBox="0 0 32 31.95" id="pencil" xmlns="http://www.w3.org/2000/svg"><path d="M22.54 1.58l-1.75 1.75L.17 23.98a.57.57 0 00-.17.41v7a.58.58 0 00.58.58h7a.61.61 0 00.42-.18l20.63-20.62 1.75-1.75a5.56 5.56 0 000-7.85 5.68 5.68 0 00-7.84.01zM1.16 30.79v-5l5 5.05zm6.44-.23l-6.2-6.21L21.19 4.56l6.21 6.2zM28.21 9.98L22 3.75l1-.94 6.2 6.2zm1.73-1.78L23.8 1.98a4.49 4.49 0 015.76.38 4.39 4.39 0 01.38 5.8z"/></svg><svg viewBox="0 0 31.99 32" id="search" xmlns="http://www.w3.org/2000/svg"><path d="M12.71 5a7.7 7.7 0 105.44 2.26A7.68 7.68 0 0012.71 5zm4.46 12.16a6.31 6.31 0 110-8.92 6.26 6.26 0 010 8.93z"/><path d="M23.58 19.29a12.68 12.68 0 10-4.28 4.29l7.53 7.53a3.026 3.026 0 004.28-4.28zm6.55 10.84a1.68 1.68 0 01-2.32 0l-8.33-8.33-.47.32A11.34 11.34 0 1122.12 19l-.32.48 8.33 8.33a1.64 1.64 0 010 2.32z"/></svg></svg>